<svg width="18" height="18" viewBox="0 0 18 18" fill="none" xmlns="http://www.w3.org/2000/svg">
<path d="M14.5 6L5 1.5L4.5 11.5L14.5 6Z" fill="currentColor"/>
<path d="M4.5 16.5V2.10004C4.49991 1.99685 4.52643 1.89538 4.57701 1.80543C4.62759 1.71549 4.70051 1.6401 4.78873 1.58657C4.87695 1.53304 4.97748 1.50316 5.08062 1.49982C5.18375 1.49649 5.28601 1.51981 5.3775 1.56754L13.9125 5.83504C14.0139 5.88417 14.0995 5.96088 14.1594 6.05639C14.2192 6.15189 14.251 6.26233 14.251 6.37504C14.251 6.48775 14.2192 6.59819 14.1594 6.69369C14.0995 6.7892 14.0139 6.86591 13.9125 6.91504L4.5 11.625" stroke="#111111" stroke-width="2" stroke-linecap="round" stroke-linejoin="round"/>
</svg>
